<svg aria-hidden="true" style="position: absolute; width: 0; height: 0; overflow: hidden;" version="1.1" xmlns="http://www.w3.org/2000/svg" xmlns:xlink="http://www.w3.org/1999/xlink">
<defs>
<symbol id="facebook" viewBox="0 0 15 32">
<title>facebook</title>
<path d="M14.982 0.013v5.146s-3.793-0.375-4.746 1.074c-0.52 0.799-0.211 3.123-0.257 4.796h5.032c-0.425 1.948-0.729 3.272-1.043 4.971h-4.017v15.988h-6.972c0-4.934 0-10.679 0-15.925h-2.966v-5.034h2.934c0.15-3.685 0.206-7.332 2.035-9.18 2.056-2.086 4.019-1.836 10.001-1.836z"></path>
</symbol>
<symbol id="instagram" viewBox="0 0 32 32">
<title>instagram</title>
<path d="M27.553 31.52h-23.631c-2.175 0-3.938-1.763-3.938-3.938v0-23.631c0-2.175 1.763-3.938 3.938-3.938v0h23.631c2.175 0 3.938 1.763 3.938 3.938v0 23.631c0 2.175-1.763 3.938-3.938 3.938v0zM15.738 9.662c-0 0-0.001 0-0.001 0-2.441 0-4.548 1.435-5.521 3.507l-0.016 0.037c-0.007 0.024-0.017 0.044-0.028 0.063l0.001-0.001c-0.058 0.135-0.108 0.271-0.158 0.406-0.023 0.062-0.049 0.123-0.070 0.185-0.046 0.135-0.082 0.283-0.123 0.418-0.017 0.062-0.037 0.135-0.052 0.197-0.032 0.148-0.054 0.295-0.075 0.455-0.009 0.062-0.021 0.123-0.028 0.185-0.022 0.195-0.035 0.422-0.036 0.652v0.001c0 3.372 2.733 6.105 6.105 6.105s6.105-2.733 6.105-6.105v0c-0.001-0.23-0.014-0.457-0.038-0.68l0.003 0.028c-0.007-0.062-0.020-0.123-0.028-0.185-0.021-0.16-0.043-0.308-0.075-0.455-0.015-0.062-0.034-0.135-0.052-0.197-0.034-0.135-0.071-0.283-0.123-0.418-0.021-0.062-0.047-0.123-0.070-0.185-0.049-0.135-0.1-0.271-0.158-0.406-0.010-0.018-0.020-0.038-0.026-0.059l-0.001-0.002c-0.989-2.109-3.094-3.543-5.533-3.545h-0zM27.947 5.132c0-0.001 0-0.002 0-0.002 0-0.869-0.704-1.573-1.573-1.573-0.001 0-0.002 0-0.003 0h-3.151c-0.001 0-0.002 0-0.002 0-0.869 0-1.573 0.704-1.573 1.573 0 0.001 0 0.002 0 0.003v-0 3.151c0 0.001 0 0.002 0 0.002 0 0.869 0.704 1.573 1.573 1.573 0.001 0 0.002 0 0.003 0h3.151c0.001 0 0.002 0 0.002 0 0.869 0 1.573-0.704 1.573-1.573 0-0.001 0-0.002 0-0.003v0-3.151zM27.947 13.206h-2.905c0.219 0.766 0.345 1.646 0.345 2.556 0 5.329-4.32 9.649-9.649 9.649s-9.649-4.32-9.649-9.649c0-0.909 0.126-1.79 0.361-2.624l-0.016 0.068h-2.905v13.194c0 0.001 0 0.002 0 0.002 0 0.869 0.704 1.573 1.573 1.573 0.001 0 0.002 0 0.003 0h21.268c0.001 0 0.002 0 0.002 0 0.869 0 1.573-0.704 1.573-1.573 0-0.001 0-0.002 0-0.003v0-13.194z"></path>
</symbol>
<symbol id="pinterest" viewBox="0 0 26 32">
<title>pinterest</title>
<path d="M10.025 20.468c-0.257 1.034-0.517 2.105-0.785 3.151-0.264 1.199-0.568 2.216-0.937 3.201l0.053-0.161c-0.642 1.665-1.491 3.102-2.536 4.372l0.021-0.027c-0.708 0.812-0.558 0.492-0.77 0.443-0.162-0.037-0.176-0.197-0.208-0.418-0.054-0.601-0.085-1.3-0.085-2.006 0-0.741 0.034-1.474 0.1-2.198l-0.007 0.093c0.113-1.575 0.371-3.035 0.762-4.44l-0.037 0.157c0.596-2.535 1.164-5.022 1.766-7.582 0.062-0.16 0.102-0.345 0.111-0.538l0-0.004c-0.253-0.61-0.439-1.317-0.525-2.055l-0.003-0.037c-0.025-0.219-0.040-0.473-0.040-0.731 0-0.593 0.077-1.168 0.222-1.716l-0.011 0.047c0.264-1.304 1.138-2.36 2.306-2.87l0.026-0.010c0.259-0.090 0.557-0.142 0.867-0.142 0.464 0 0.901 0.116 1.283 0.322l-0.014-0.007c0.547 0.332 0.939 0.874 1.065 1.512l0.002 0.014c0.051 0.281 0.080 0.605 0.080 0.936 0 0.494-0.065 0.973-0.188 1.428l0.009-0.038c-0.329 1.502-0.761 2.634-1.153 4.074-0.178 0.465-0.282 1.003-0.282 1.565 0 0.234 0.018 0.463 0.052 0.687l-0.003-0.025c0.146 0.654 0.521 1.203 1.035 1.57l0.008 0.005c0.496 0.359 1.116 0.574 1.786 0.574 0.075 0 0.15-0.003 0.224-0.008l-0.010 0.001c1.363-0.125 2.534-0.855 3.253-1.917l0.010-0.015c1.151-1.617 1.899-3.593 2.059-5.734l0.002-0.038c0.067-0.52 0.106-1.121 0.106-1.73 0-0.261-0.007-0.521-0.021-0.779l0.002 0.036c-0.058-1.457-0.571-2.785-1.399-3.856l0.012 0.016c-0.791-0.971-1.842-1.702-3.046-2.092l-0.046-0.013c-0.872-0.27-1.875-0.425-2.914-0.425-0.6 0-1.187 0.052-1.758 0.151l0.061-0.009c-2.653 0.405-4.854 2.043-6.028 4.3l-0.021 0.045c-0.649 1.19-1.031 2.607-1.031 4.112 0 0.030 0 0.059 0 0.089l-0-0.005c-0.002 0.051-0.003 0.111-0.003 0.171 0 1.077 0.312 2.082 0.85 2.928l-0.013-0.022c0.164 0.246 0.404 0.455 0.564 0.738 0.040 0.153 0.063 0.329 0.063 0.511 0 0.333-0.077 0.649-0.215 0.929l0.006-0.012c-0.135 0.529-0.15 1.243-0.761 1.255-0.297-0.034-0.564-0.139-0.791-0.299l0.005 0.004c-1.611-0.988-2.731-2.644-2.978-4.572l-0.003-0.031c-0.116-0.598-0.182-1.285-0.182-1.988s0.066-1.39 0.193-2.056l-0.011 0.068c0.674-3.249 2.658-5.939 5.363-7.54l0.053-0.029c1.383-0.825 3.008-1.407 4.743-1.642l0.066-0.007c0.581-0.087 1.264-0.145 1.958-0.16l0.017-0c0.169-0.009 0.366-0.013 0.565-0.013 1.722 0 3.359 0.367 4.835 1.028l-0.075-0.030c1.44 0.646 2.66 1.539 3.66 2.637l0.008 0.009c1.028 1.122 1.808 2.489 2.24 4.003l0.017 0.071c0.287 0.837 0.465 1.802 0.492 2.806l0 0.013c-0.047 1.061-0.182 2.061-0.401 3.031l0.022-0.114c-0.415 3.288-2.169 6.101-4.69 7.915l-0.034 0.023c-1.304 0.852-2.902 1.359-4.617 1.359-0.107 0-0.215-0.002-0.321-0.006l0.015 0c-0.904-0.056-1.737-0.314-2.469-0.729l0.028 0.015c-0.68-0.359-1.231-0.883-1.613-1.52l-0.010-0.018z"></path>
</symbol>
<symbol id="twitter" viewBox="0 0 38 32">
<title>twitter</title>
<path d="M25.337 0.015c0.114-0.006 0.247-0.009 0.381-0.009 2.221 0 4.227 0.923 5.654 2.407l0.002 0.003c1.467-0.244 2.782-0.706 3.981-1.357l-0.066 0.033 0.95-0.524c-0.482 1.452-1.339 2.672-2.459 3.582l-0.014 0.011c-0.242 0.23-0.519 0.429-0.819 0.587l-0.020 0.010v0.015c1.6-0.172 3.063-0.583 4.413-1.2l-0.089 0.036v0.015c-0.722 1.145-1.581 2.124-2.571 2.951l-0.020 0.016c-0.397 0.32-0.796 0.64-1.193 0.945 0.011 0.265 0.018 0.575 0.018 0.887 0 1.425-0.135 2.818-0.393 4.167l0.022-0.138c-1.908 8.567-6.964 14.385-14.966 16.887-1.899 0.565-4.080 0.889-6.338 0.889-1.582 0-3.128-0.16-4.62-0.464l0.148 0.025c-1.745-0.421-3.242-0.924-4.679-1.541l0.189 0.072c-0.854-0.376-1.564-0.75-2.245-1.167l0.082 0.047c-0.224-0.131-0.447-0.276-0.671-0.407 0.51 0.069 1.099 0.108 1.698 0.108 0.261 0 0.521-0.007 0.779-0.022l-0.036 0.002c0.752-0.116 1.488-0.087 2.182-0.233 1.725-0.34 3.26-0.915 4.663-1.699l-0.079 0.041c0.792-0.373 1.473-0.825 2.079-1.361l-0.009 0.008c-0.817-0.003-1.598-0.152-2.319-0.422l0.046 0.015c-2.298-0.794-4.071-2.58-4.831-4.833l-0.016-0.054c0.409 0.079 0.88 0.124 1.361 0.124 0.73 0 1.436-0.104 2.104-0.297l-0.053 0.013c-0.95-0.131-1.797-0.488-2.513-1.014l0.015 0.011c-2.17-1.297-3.601-3.633-3.601-6.304 0-0.080 0.001-0.159 0.004-0.238l-0 0.012c0.262 0.116 0.522 0.247 0.783 0.364 0.46 0.193 0.997 0.35 1.556 0.445l0.044 0.006c0.206 0.074 0.444 0.117 0.692 0.117 0.125 0 0.247-0.011 0.365-0.032l-0.013 0.002h-0.038c-0.384-0.436-1.011-0.742-1.398-1.222-1.195-1.364-1.924-3.162-1.924-5.131 0-0.636 0.076-1.254 0.22-1.846l-0.011 0.053c0.21-0.759 0.49-1.42 0.843-2.035l-0.022 0.043c0.013 0 0.025 0.015 0.038 0.015 0.204 0.302 0.432 0.564 0.686 0.797l0.003 0.003c0.677 0.814 1.422 1.531 2.241 2.158l0.033 0.024c2.601 2.13 5.744 3.701 9.187 4.481l0.15 0.029c1.025 0.271 2.204 0.434 3.42 0.451l0.010 0c-0.135-0.518-0.212-1.113-0.212-1.726 0-0.664 0.091-1.307 0.26-1.916l-0.012 0.050c0.578-2.318 2.175-4.177 4.276-5.101l0.048-0.019c0.483-0.213 1.051-0.394 1.641-0.514l0.055-0.009c0.308-0.044 0.62-0.073 0.929-0.116z"></path>
</symbol>
</defs>
</svg>
